<svg width="32" height="32" viewBox="0 0 32 32" fill="none" xmlns="http://www.w3.org/2000/svg">
<rect width="32" height="32" rx="7" fill="#2D6DBB"/>
<g transform="translate(6.2,2.2) scale(0.94)">
<path d="M5.37506 8.97308C5.79183 8.38959 6.29482 7.8986 6.89842 7.51435C7.58105 7.07318 8.32117 6.85259 9.12596 6.85259C9.73674 6.85259 10.2613 7.00914 10.6781 7.31511C10.8936 7.47877 11.0661 7.66378 11.1811 7.87726C11.296 8.09073 11.4541 8.49633 11.6409 9.08693C12.0649 10.3607 12.7188 11.0011 13.6098 11.0011C14.0194 11.0011 14.3715 10.8588 14.6517 10.567C14.9391 10.2753 15.0828 9.91948 15.0828 9.48542C15.0828 8.83788 14.7379 8.24728 14.0553 7.71359C12.9343 6.83836 11.3822 6.4043 9.39901 6.4043C7.96189 6.4043 6.63973 6.65335 5.43255 7.15145C4.22536 7.64955 3.19782 8.36824 2.36428 9.30752C1.62416 10.1258 1.04213 11.1149 0.618175 12.2677C0.194223 13.4204 -0.0141602 14.5945 -0.0141602 15.7757C-0.0141602 18.1951 0.754702 20.1946 2.28524 21.7814C3.85889 23.3967 6.02177 24.2008 8.78105 24.2008C10.5056 24.2008 11.8565 23.8877 12.8409 23.2544C13.8254 22.6211 14.5583 21.5964 15.0325 20.1733L14.3643 20.031C13.9691 20.9987 13.5523 21.696 13.114 22.123C12.2517 22.9413 11.1739 23.354 9.85889 23.354C8.27806 23.354 7.1571 22.7492 5.98584 21.5395C5.23135 20.771 4.64213 19.8175 4.2038 18.679C3.76548 17.5404 3.54991 16.3663 3.54991 15.1709C3.54991 13.8687 3.78704 12.5381 4.26847 11.179C4.58464 10.2895 4.94392 9.55657 5.36069 8.97308H5.37506Z" fill="white"/>
<path d="M19.042 16.3662C20.0341 16.3662 20.8384 15.5698 20.8384 14.5873C20.8384 13.6048 20.0341 12.8083 19.042 12.8083C18.0499 12.8083 17.2456 13.6048 17.2456 14.5873C17.2456 15.5698 18.0499 16.3662 19.042 16.3662Z" fill="white"/>
<path d="M19.042 24.1936C20.0341 24.1936 20.8384 23.3972 20.8384 22.4147C20.8384 21.4322 20.0341 20.6357 19.042 20.6357C18.0499 20.6357 17.2456 21.4322 17.2456 22.4147C17.2456 23.3972 18.0499 24.1936 19.042 24.1936Z" fill="white"/>
</g>
</svg>